<?xml version="1.0" encoding="UTF-8" standalone="no"?>
<!DOCTYPE svg PUBLIC "-//W3C//DTD SVG 20010904//EN" "http://www.w3.org/TR/2001/REC-SVG-20010904/DTD/svg10.dtd">
<svg version="1.0" xmlns="http://www.w3.org/2000/svg" width="200.000000pt" height="132.000000pt" viewBox="0 0 200.000000 132.000000" preserveAspectRatio="xMidYMid meet">
<metadata>
Created by potrace 1.10, written by Peter Selinger 2001-2011
</metadata>
<g transform="translate(0.000000,132.000000) scale(0.100000,-0.100000)" fill="#5a3a3b" stroke="none">
<path d="M1180 699 c0 -5 6 -9 14 -9 7 0 21 -12 31 -26 13 -21 21 -24 45 -19 36 8 70 -9 70 -35 0 -14 7 -20 21 -20 22 0 21 5 -18 57 -13 18 -34 38 -46 45 -27 14 -117 20 -117 7z m101 -27 c-7 -2 -18 1 -23 6 -8 8 -4 9 13 5 13 -4 18 -8 10 -11z"/>
<path d="M445 680 c-63 -31 -128 -74 -132 -86 -2 -6 11 -15 29 -20 36 -10 32 3 54 -181 3 -24 10 -43 16 -43 6 0 17 -8 25 -17 13 -16 14 -16 9 8 -7 32 18 47 34 21 11 -16 11 -15 6 1 -3 10 -6 23 -6 28 0 4 -7 6 -17 2 -13 -5 -12 0 6 23 11 16 23 39 26 52 5 30 15 43 26 37 11 -7 12 5 1 23 -6 9 -17 -3 -36 -38 -15 -27 -32 -50 -37 -50 -6 0 -8 -4 -5 -9 6 -10 -24 -75 -31 -67 -2 2 0 13 6 24 6 11 7 22 4 26 -4 3 7 21 23 38 16 18 21 26 12 19 -9 -7 -22 -10 -28 -6 -7 4 2 14 22 23 18 10 34 25 36 35 3 17 1 17 -33 2 -45 -18 -59 -19 -49 -3 4 6 8 24 9 40 3 30 28 56 55 59 25 2 45 -2 53 -12 4 -5 4 -7 1 -4 -4 3 -13 0 -20 -6 -8 -7 -14 -7 -19 1 -4 7 -12 1 -21 -15 -19 -38 -18 -39 14 -16 22 15 32 17 41 8 9 -9 16 -8 33 2 24 15 81 24 73 12 -5 -9 51 -21 59 -13 8 7 -67 83 -95 98 -49 25 -100 26 -144 4z m95 -32 c-19 -6 -16 -7 13 -3 20 2 37 0 37 -6 0 -5 7 -9 17 -9 25 0 12 -7 -27 -13 -44 -8 -80 14 -61 37 7 8 20 12 29 8 14 -5 13 -7 -8 -14z m-50 7 c0 -9 -44 -23 -54 -17 -5 3 -1 9 10 13 23 9 44 11 44 4z m-90 -42 c-1 -20 -16 -31 -30 -23 -13 8 -12 10 3 10 10 0 15 5 12 10 -3 6 -1 10 4 10 6 0 11 -3 11 -7z"/>
<path d="M1140 675 c5 -14 7 -31 4 -39 -3 -8 -1 -17 4 -20 5 -3 4 -25 -3 -53 -11 -41 -13 -134 -4 -182 1 -7 12 -24 25 -38 l22 -24 -2 25 c0 13 -3 24 -6 23 -3 -1 -6 3 -7 8 -1 6 6 9 17 7 10 -2 22 2 26 9 4 7 3 9 -3 6 -6 -4 -14 0 -17 9 -3 8 -10 13 -15 10 -5 -3 -12 1 -15 10 -10 26 -7 74 5 74 5 0 7 5 3 11 -3 6 0 15 7 20 11 7 11 9 -3 9 -15 0 -15 2 -1 31 13 27 17 29 25 15 5 -9 10 -30 10 -46 1 -17 5 -30 10 -30 5 0 6 -6 1 -12 -8 -14 -9 -17 -19 -60 -6 -26 -5 -27 20 -15 26 12 30 35 6 29 -11 -2 -11 0 -1 11 8 10 8 17 1 20 -6 3 -5 4 2 3 7 -2 12 -9 11 -15 -4 -14 14 -14 23 0 3 6 1 15 -6 19 -13 8 -13 16 1 41 6 13 4 16 -9 15 -12 -1 -17 7 -18 29 0 17 4 33 9 36 14 10 -69 89 -93 89 -17 0 -18 -4 -10 -25z m65 -33 c6 -4 11 -12 12 -19 2 -9 -5 -9 -27 -1 -17 5 -30 14 -30 19 0 11 31 12 45 1z"/>
<path d="M560 554 l-35 -14 35 5 c19 3 39 10 44 15 14 14 -2 12 -44 -6z"/>
<path d="M627 564 c-9 -9 30 -36 83 -59 25 -10 54 -27 66 -37 11 -10 23 -16 26 -13 3 3 11 -2 19 -12 12 -15 12 -16 -3 -10 -10 3 -20 1 -24 -5 -5 -7 -10 -3 -15 10 -5 12 -13 22 -19 22 -6 0 -8 -6 -5 -12 4 -7 -2 -3 -13 9 -19 22 -92 58 -92 45 0 -11 113 -87 130 -87 8 0 20 -4 27 -8 7 -4 31 -14 55 -23 l43 -15 -40 43 c-22 23 -44 46 -50 50 -6 4 -6 8 -1 8 6 0 -3 14 -20 31 -29 31 -102 74 -110 66 -5 -5 48 -38 79 -50 9 -3 17 -11 17 -16 0 -5 -29 8 -65 30 -66 40 -77 44 -88 33z m178 -84 c3 -5 2 -10 -4 -10 -5 0 -13 5 -16 10 -3 6 -2 10 4 10 5 0 13 -4 16 -10z"/>
<path d="M1298 559 c13 -5 27 -7 32 -4 4 3 34 -9 66 -25 33 -16 64 -30 70 -30 6 0 17 -7 24 -15 13 -16 9 -18 -33 -18 -10 0 -15 -2 -12 -6 4 -3 10 -6 13 -6 4 0 14 -5 22 -10 8 -5 22 -10 30 -10 8 0 25 -6 37 -13 12 -7 33 -16 48 -22 21 -8 18 -3 -17 31 -24 22 -51 45 -60 50 -10 5 -17 15 -15 22 1 7 -4 11 -10 10 -7 -2 -13 1 -13 7 0 5 -10 14 -21 21 -15 7 -19 8 -15 0 5 -7 1 -9 -8 -5 -9 3 -14 10 -11 14 8 13 -24 20 -90 19 -46 -1 -55 -3 -37 -10z m238 -101 c4 -7 3 -8 -4 -4 -7 4 -12 3 -12 -3 0 -11 -26 -9 -37 4 -4 4 -2 5 5 1 6 -4 12 -2 12 3 0 15 27 14 36 -1z"/>
<path d="M1298 528 c5 -5 16 -8 23 -6 8 3 3 7 -10 11 -17 4 -21 3 -13 -5z"/>
<path d="M537 513 c4 -11 8 -11 22 -1 9 7 17 13 19 14 2 1 -8 2 -22 2 -17 0 -23 -5 -19 -15z"/>
<path d="M590 505 c0 -2 10 -10 23 -16 20 -11 21 -11 8 4 -13 16 -31 23 -31 12z"/>
<path d="M1330 506 c0 -2 8 -10 18 -17 15 -13 16 -12 3 4 -13 16 -21 21 -21 13z"/>
<path d="M1396 498 c5 -8 2 -9 -9 -5 -10 3 -17 2 -17 -3 0 -6 3 -10 8 -10 4 0 23 -15 43 -33 19 -17 63 -53 97 -79 57 -44 142 -139 142 -159 0 -5 -7 -9 -15 -9 -8 0 -15 5 -15 10 0 6 -4 10 -10 10 -5 0 -7 -8 -4 -17 4 -13 0 -11 -15 6 -15 17 -21 19 -21 8 0 -37 25 -45 157 -46 70 -1 142 -6 159 -11 19 -7 45 -7 70 -1 38 9 37 9 -24 10 -45 1 -61 4 -56 13 4 6 3 8 -3 5 -19 -12 -111 22 -118 42 -7 23 -132 151 -147 151 -5 0 12 -20 38 -44 49 -44 93 -106 76 -106 -5 0 -15 7 -22 15 -7 8 -18 15 -25 15 -6 0 -20 10 -31 21 -19 22 -19 22 5 9 17 -9 8 6 -29 49 -62 72 -90 83 -34 14 l39 -48 -45 35 c-24 19 -46 34 -48 32 -2 -2 -6 -1 -9 2 -4 3 -1 6 7 6 10 0 10 3 0 15 -7 8 -18 15 -24 15 -6 0 -28 12 -49 26 -29 20 -36 29 -27 39 8 10 4 15 -20 24 -23 7 -29 7 -24 -1z m311 -273 c18 -11 33 -23 33 -27 0 -14 -47 -8 -60 7 -10 12 -10 15 1 15 8 0 5 6 -7 16 -24 19 -9 14 33 -11z"/>
<path d="M1297 486 c-4 -10 -1 -13 9 -9 15 6 19 23 5 23 -5 0 -11 -7 -14 -14z"/>
<path d="M507 473 c10 -3 9 -8 -2 -20 -8 -8 -15 -20 -15 -26 0 -13 39 32 40 46 0 4 -8 7 -17 6 -11 0 -13 -3 -6 -6z"/>
<path d="M1180 465 c0 -8 4 -15 10 -15 5 0 7 7 4 15 -4 8 -8 15 -10 15 -2 0 -4 -7 -4 -15z"/>
<path d="M616 442 c-3 -6 1 -13 10 -16 23 -9 28 -2 10 13 -8 7 -17 8 -20 3z"/>
<path d="M680 446 c0 -2 37 -42 83 -88 110 -111 151 -164 103 -133 -15 10 -31 26 -37 36 -5 11 -15 19 -21 19 -7 0 2 -15 20 -33 18 -18 32 -36 32 -40 0 -4 -22 -7 -50 -7 -40 0 -50 3 -50 16 0 9 -11 27 -25 40 -16 15 -25 35 -26 56 l-2 33 -6 -35 c-6 -30 -3 -39 22 -62 18 -16 26 -31 21 -39 -5 -9 -11 -7 -22 7 -10 13 -16 15 -19 7 -8 -23 -24 -14 -39 23 -17 41 -31 57 -56 67 -21 7 -22 3 -7 -24 5 -11 14 -17 18 -15 4 3 15 -10 24 -29 21 -44 10 -44 -33 0 -18 19 -36 32 -39 29 -8 -7 70 -74 88 -75 9 0 4 -5 -11 -11 -30 -11 -38 -28 -12 -28 8 0 13 4 9 9 -8 13 76 30 97 19 9 -4 79 -7 155 -7 129 1 178 -4 169 -20 -2 -3 13 -5 35 -5 21 1 55 2 74 3 26 1 35 5 35 19 1 16 2 16 15 -2 7 -10 20 -16 27 -13 10 4 10 6 1 6 -7 1 -13 5 -13 11 0 5 8 6 18 3 15 -6 15 -5 3 11 -10 11 -16 13 -21 6 -4 -7 -13 -2 -24 14 -9 14 -21 26 -26 26 -6 0 -3 -11 6 -25 11 -17 12 -25 5 -25 -7 0 -9 -5 -6 -10 3 -6 2 -10 -4 -10 -5 0 -12 6 -14 13 -4 9 -6 9 -6 0 -1 -16 -76 -7 -105 13 -13 8 -25 12 -28 9 -3 -4 -15 9 -26 27 -36 57 -116 129 -154 137 l-36 8 20 -33 c10 -18 26 -38 34 -44 7 -7 14 -18 14 -24 0 -6 11 -16 25 -22 21 -10 20 -6 -15 39 -21 29 -37 54 -34 56 7 7 72 -59 103 -105 54 -79 -26 -40 -119 57 -25 27 -45 53 -46 58 -2 25 -5 29 -21 34 -10 3 -37 17 -60 32 -24 14 -43 24 -43 21z"/>
<path d="M550 422 c0 -12 3 -12 15 -2 8 7 15 13 15 15 0 1 -7 2 -15 2 -8 0 -15 -7 -15 -15z"/>
<path d="M1290 427 c0 -7 9 -13 19 -13 15 0 17 3 9 13 -6 7 -14 13 -19 13 -5 0 -9 -6 -9 -13z"/>
<path d="M1265 420 c-3 -5 -1 -10 4 -10 6 0 11 5 11 10 0 6 -2 10 -4 10 -3 0 -8 -4 -11 -10z"/>
<path d="M540 392 c0 -9 38 -52 46 -52 2 0 -2 14 -11 30 -14 28 -35 41 -35 22z"/>
<path d="M1265 391 c-3 -6 1 -11 10 -11 9 0 14 -3 12 -7 -2 -5 6 -18 19 -31 21 -20 36 -18 17 2 -5 4 -8 12 -8 18 0 17 -42 41 -50 29z"/>
<path d="M1405 390 c3 -5 8 -10 11 -10 2 0 4 5 4 10 0 6 -5 10 -11 10 -5 0 -7 -4 -4 -10z"/>
<path d="M604 374 c1 -9 7 -19 13 -22 5 -4 13 -14 16 -22 3 -9 6 -4 6 12 1 17 -6 31 -18 38 -15 8 -19 7 -17 -6z"/>
<path d="M512 349 c8 -17 24 -36 36 -40 15 -6 21 -5 17 1 -3 6 -13 10 -21 10 -8 0 -14 5 -14 10 0 6 5 10 11 10 5 0 7 5 3 11 -4 8 -9 7 -15 -2 -7 -11 -9 -10 -9 3 0 9 -5 20 -10 23 -6 4 -5 -7 2 -26z"/>
<path d="M1241 364 c0 -11 3 -14 6 -6 3 7 2 16 -1 19 -3 4 -6 -2 -5 -13z"/>
<path d="M1334 368 c-4 -5 3 -12 14 -15 11 -2 22 -13 25 -24 3 -10 10 -19 15 -19 5 0 3 15 -6 33 -14 32 -37 44 -48 25z"/>
<path d="M1215 360 c3 -5 8 -10 11 -10 2 0 4 5 4 10 0 6 -5 10 -11 10 -5 0 -7 -4 -4 -10z"/>
<path d="M1450 365 c0 -10 29 -24 34 -17 3 6 -3 12 -14 15 -11 3 -20 4 -20 2z"/>
<path d="M722 348 c5 -15 28 -23 28 -10 0 5 -7 13 -16 16 -10 4 -14 1 -12 -6z"/>
<path d="M664 323 c2 -15 8 -29 13 -30 6 -2 8 7 5 22 -6 35 -21 42 -18 8z"/>
<path d="M1256 342 c-2 -4 -1 -13 3 -20 4 -8 11 -5 19 8 10 16 10 20 -2 20 -8 0 -17 -4 -20 -8z"/>
<path d="M1405 330 c4 -14 12 -29 17 -35 7 -7 8 -2 3 15 -4 14 -12 30 -17 35 -7 7 -8 2 -3 -15z"/>
<path d="M1500 342 c0 -8 55 -53 80 -66 8 -4 3 3 -11 16 -48 43 -69 58 -69 50z"/>
<path d="M1200 332 c0 -5 11 -19 25 -32 14 -13 25 -29 25 -36 0 -7 4 -16 10 -19 6 -4 7 1 3 12 -5 14 -1 13 20 -6 31 -28 34 -36 11 -27 -14 5 -15 4 -5 -8 6 -8 22 -12 34 -9 15 3 12 -1 -8 -10 -29 -14 -27 -14 55 -18 70 -4 91 -2 117 14 33 19 36 40 6 35 -9 -2 -19 7 -24 21 -8 19 -7 22 4 13 7 -6 25 -9 40 -7 17 4 29 0 35 -11 7 -12 11 -13 17 -5 4 7 5 14 4 15 -82 61 -108 74 -75 37 10 -10 13 -22 8 -25 -11 -7 -37 20 -52 54 -8 20 -9 11 -4 -40 3 -36 11 -69 17 -73 7 -5 -1 -6 -20 -3 -19 3 -33 1 -35 -6 -3 -7 -12 -9 -22 -5 -9 4 -15 11 -12 15 3 5 -10 24 -29 42 -19 19 -35 39 -35 46 0 6 -7 14 -15 18 -8 3 -15 1 -15 -4 0 -6 5 -10 10 -10 6 0 10 -7 10 -14 0 -8 16 -27 35 -42 20 -15 33 -29 31 -32 -6 -6 -48 27 -107 84 -47 44 -59 51 -59 36z"/>
<path d="M482 303 c14 -16 31 -37 37 -48 13 -20 13 -20 6 0 -6 18 -4 18 17 -3 20 -20 21 -24 8 -33 -13 -10 -13 -10 0 -6 9 3 24 -1 35 -9 17 -13 17 -14 -13 -14 -18 0 -32 -5 -32 -11 0 -6 8 -8 18 -5 9 3 30 8 45 12 l28 6 -73 69 c-40 37 -79 68 -87 69 -10 0 -6 -9 11 -27z"/>
<path d="M760 315 c0 -2 10 -10 23 -16 20 -11 21 -11 8 4 -13 16 -31 23 -31 12z"/>
<path d="M1330 302 c0 -4 5 -14 10 -22 8 -12 12 -13 19 -1 6 10 12 5 22 -17 7 -17 17 -28 21 -26 4 3 8 0 8 -5 0 -6 7 -11 15 -11 12 0 12 3 -2 18 -10 11 -26 30 -35 43 -16 22 -58 38 -58 21z"/>
<path d="M460 259 c12 -23 23 -39 25 -37 7 6 -28 78 -37 78 -5 0 1 -18 12 -41z"/>
<path d="M754 275 c11 -16 28 -39 38 -50 19 -20 19 -20 12 0 -4 11 -22 34 -38 50 l-31 30 19 -30z"/>
<path d="M1203 265 c0 -8 4 -12 9 -9 5 3 6 10 3 15 -9 13 -12 11 -12 -6z"/>
<path d="M950 236 c0 -2 8 -10 18 -17 15 -13 16 -12 3 4 -13 16 -21 21 -21 13z"/>
<path d="M505 215 c4 -17 -1 -23 -27 -31 -21 -6 -32 -15 -30 -24 2 -8 4 -27 4 -42 1 -15 5 -25 9 -22 4 2 7 17 7 33 -1 34 10 54 26 48 25 -10 35 7 20 33 -12 19 -14 20 -9 5z"/>
<path d="M1516 185 c-19 -14 -18 -15 16 -15 39 0 58 14 32 24 -22 8 -26 7 -48 -9z"/>
<path d="M319 182 c-13 -2 -18 -20 -21 -85 -3 -45 -3 -86 1 -92 3 -6 8 28 11 75 l5 84 33 2 c18 1 35 4 38 7 6 6 -46 14 -67 9z"/>
<path d="M407 183 c-12 -11 -8 -23 8 -23 8 0 15 7 15 15 0 16 -12 20 -23 8z"/>
<path d="M803 164 c0 -7 4 -11 8 -8 4 2 9 -1 11 -8 3 -7 7 -8 11 -2 3 5 -2 15 -12 21 -14 9 -18 8 -18 -3z"/>
<path d="M516 162 c-3 -5 -1 -22 4 -38 8 -28 8 -28 7 8 -2 40 -3 43 -11 30z"/>
<path d="M568 163 c7 -3 16 -2 19 1 4 3 -2 6 -13 5 -11 0 -14 -3 -6 -6z"/>
<path d="M1288 163 c7 -3 16 -2 19 1 4 3 -2 6 -13 5 -11 0 -14 -3 -6 -6z"/>
<path d="M359 142 c-15 -17 -12 -73 5 -101 11 -17 37 32 41 79 l3 35 -11 -35 c-6 -19 -17 -41 -23 -48 -10 -10 -12 -6 -11 20 1 18 6 39 11 46 13 20 2 24 -15 4z"/>
<path d="M541 148 c-1 -21 45 -36 62 -19 8 8 3 11 -20 11 -17 0 -34 6 -36 13 -3 7 -6 5 -6 -5z"/>
<path d="M713 153 c10 -9 67 -10 67 0 0 4 -16 7 -37 7 -20 0 -33 -3 -30 -7z"/>
<path d="M1473 153 c9 -2 25 -2 35 0 9 3 1 5 -18 5 -19 0 -27 -2 -17 -5z"/>
<path d="M880 146 c0 -2 7 -6 15 -10 8 -3 15 -1 15 4 0 6 -7 10 -15 10 -8 0 -15 -2 -15 -4z"/>
<path d="M1293 132 c-57 -6 -36 -17 32 -17 36 -1 65 2 65 6 0 9 -55 15 -97 11z"/>
<path d="M668 123 c6 -2 18 -2 25 0 6 3 1 5 -13 5 -14 0 -19 -2 -12 -5z"/>
<path d="M710 122 c0 -5 18 -9 41 -10 24 -1 38 2 34 8 -7 12 -75 13 -75 2z"/>
<path d="M835 120 c-3 -6 1 -7 9 -4 18 7 21 14 7 14 -6 0 -13 -4 -16 -10z"/>
<path d="M870 120 c0 -5 10 -10 23 -10 18 0 19 2 7 10 -19 13 -30 13 -30 0z"/>
<path d="M1400 122 c0 -4 17 -9 38 -10 20 -2 43 -10 49 -19 7 -9 16 -14 19 -10 4 3 0 12 -7 20 -16 15 -99 32 -99 19z"/>
<path d="M540 105 c0 -8 8 -11 20 -8 11 3 20 7 20 8 0 1 -9 5 -20 8 -12 3 -20 0 -20 -8z"/>
<path d="M1527 113 c7 -2 9 -11 6 -20 -5 -12 -2 -13 13 -5 10 5 52 8 92 7 40 -2 75 1 78 6 3 5 -28 9 -69 9 -41 0 -87 2 -103 4 -16 2 -24 1 -17 -1z"/>
<path d="M1868 108 c6 -6 18 -8 28 -6 14 3 12 5 -9 10 -19 3 -25 2 -19 -4z"/>
<path d="M595 100 c-3 -5 1 -10 9 -10 8 0 18 5 21 10 3 6 -1 10 -9 10 -8 0 -18 -4 -21 -10z"/>
<path d="M1740 100 c8 -5 22 -10 30 -10 13 0 13 1 0 10 -8 5 -22 10 -30 10 -13 0 -13 -1 0 -10z"/>
<path d="M710 94 c34 -7 110 -9 110 -2 0 5 -28 7 -62 7 -35 -1 -56 -3 -48 -5z"/>
<path d="M858 93 c12 -2 30 -2 40 0 9 3 -1 5 -23 4 -22 0 -30 -2 -17 -4z"/>
<path d="M920 92 c0 -9 78 -8 87 2 4 3 -15 6 -40 6 -26 0 -47 -4 -47 -8z"/>
<path d="M1252 83 c-18 -2 -30 -8 -27 -13 3 -4 21 -4 41 0 36 8 60 21 33 18 -8 0 -29 -3 -47 -5z"/>
<path d="M560 70 c0 -6 -5 -8 -11 -4 -8 4 -8 0 0 -15 13 -24 26 -29 18 -7 -3 8 -1 16 6 19 8 2 8 5 -1 11 -7 4 -12 2 -12 -4z"/>
<path d="M885 69 c-4 -6 -5 -12 -2 -15 2 -3 7 2 10 11 7 17 1 20 -8 4z"/>
<path d="M1164 71 c3 -5 15 -11 26 -14 17 -4 19 -3 9 9 -12 15 -44 20 -35 5z"/>
<path d="M618 63 c6 -2 18 -2 25 0 6 3 1 5 -13 5 -14 0 -19 -2 -12 -5z"/>
<path d="M1088 63 c12 -2 32 -2 45 0 12 2 2 4 -23 4 -25 0 -35 -2 -22 -4z"/>
<path d="M1348 63 c12 -2 30 -2 40 0 9 3 -1 5 -23 4 -22 0 -30 -2 -17 -4z"/>
<path d="M500 50 c0 -5 5 -10 11 -10 5 0 7 5 4 10 -3 6 -8 10 -11 10 -2 0 -4 -4 -4 -10z"/>
<path d="M1504 50 c18 -6 66 -2 66 6 0 1 -19 2 -42 2 -29 0 -37 -3 -24 -8z"/>
<path d="M1630 49 c0 -5 5 -7 10 -4 6 3 10 8 10 11 0 2 -4 4 -10 4 -5 0 -10 -5 -10 -11z"/>
<path d="M595 40 c-8 -13 8 -18 29 -10 19 6 19 7 -2 12 -12 4 -24 2 -27 -2z"/>
<path d="M880 26 c7 -7 13 -7 20 0 6 6 3 10 -10 10 -13 0 -16 -4 -10 -10z"/>
<path d="M1380 31 c0 -5 -10 -12 -22 -14 -13 -2 0 -4 27 -4 28 -1 64 3 80 8 23 6 19 7 -17 3 -31 -3 -48 -1 -48 5 0 6 -4 11 -10 11 -5 0 -10 -4 -10 -9z"/>
<path d="M1539 14 c-11 -14 -8 -15 26 -12 21 2 40 9 41 16 1 7 0 8 -3 2 -2 -5 -17 -10 -31 -10 -21 0 -24 2 -12 10 8 5 10 10 4 10 -6 0 -17 -7 -25 -16z"/>
<path d="M1640 21 c0 -5 9 -7 20 -4 11 3 20 7 20 9 0 2 -9 4 -20 4 -11 0 -20 -4 -20 -9z"/>
<path d="M1718 23 c6 -2 18 -2 25 0 6 3 1 5 -13 5 -14 0 -19 -2 -12 -5z"/>
<path d="M1775 22 c3 -4 16 -7 28 -8 12 0 36 -3 52 -6 17 -3 24 -3 18 -1 -7 3 -13 8 -13 12 0 5 -21 9 -46 9 -26 1 -43 -2 -39 -6z"/>
<path d="M1897 23 c18 -2 50 -2 70 0 21 2 7 4 -32 4 -38 0 -55 -2 -38 -4z"/>
</g>
</svg>